{
.appVersion = "3058";
.formatVersion = 3;
date = "2021-04-08 22:23:42 +0000";
familyName = "DN Condensed Capital Serif";
fontMaster = (
{
iconName = Condensed;
id = m01;
metricValues = (
{
over = 10;
pos = 800;
},
{
over = -10;
},
{
over = -10;
pos = -200;
},
{
over = 10;
pos = 775;
}
);
name = Regular;
}
);
glyphs = (
{
glyphname = A;
lastChange = "2021-04-08 23:29:22 +0000";
layers = (
{
layerId = m01;
shapes = (
{
closed = 1;
nodes = (
(165,63,l),
(348,709,l),
(296,709,l),
(480,63,l),
(573,63,l),
(352,785,l),
(308,785,l),
(88,63,l)
);
},
{
closed = 1;
nodes = (
(573,63,l),
(480,63,l),
(408,19,l),
(418,0,l),
(528,10,l),
(631,0,l),
(641,19,l)
);
},
{
closed = 1;
nodes = (
(167,63,l),
(87,63,l),
(15,19,l),
(25,0,l),
(125,10,l),
(225,0,l),
(235,19,l)
);
},
{
closed = 1;
nodes = (
(179,166,l),
(475,166,l),
(475,221,l),
(179,221,l)
);
}
);
width = 656;
}
);
unicode = 65;
},
{
glyphname = B;
lastChange = "2021-04-08 23:14:29 +0000";
layers = (
{
layerId = m01;
shapes = (
{
closed = 1;
nodes = (
(246,720,l),
(246,775,l),
(149,775,l),
(149,720,l)
);
},
{
closed = 1;
nodes = (
(98,722,l),
(178,722,l),
(140,775,l),
(40,785,l),
(30,766,l)
);
},
{
closed = 1;
nodes = (
(98,0,l),
(178,0,l),
(178,775,l),
(98,775,l)
);
},
{
closed = 1;
nodes = (
(431,528,l),
(431,575,l),
(351,600,l),
(351,504,l)
);
},
{
closed = 1;
nodes = (
(309,720,o),
(351,678,o),
(351,599,c),
(431,574,l),
(431,705,o),
(361,775,o),
(231,775,c),
(231,720,l)
);
},
{
closed = 1;
nodes = (
(361,339,o),
(431,406,o),
(431,530,c),
(351,505,l),
(351,426,o),
(309,384,o),
(231,384,c),
(231,339,l)
);
},
{
closed = 1;
nodes = (
(40,-10,l),
(140,0,l),
(178,53,l),
(98,53,l),
(30,9,l)
);
},
{
closed = 1;
nodes = (
(169,0,l),
(266,0,l),
(266,55,l),
(169,55,l)
);
},
{
closed = 1;
nodes = (
(266,329,l),
(266,384,l),
(169,384,l),
(169,329,l)
);
},
{
closed = 1;
nodes = (
(466,191,l),
(466,193,l),
(386,218,l),
(386,166,l)
);
},
{
closed = 1;
nodes = (
(344,329,o),
(386,287,o),
(386,218,c),
(466,193,l),
(466,307,o),
(396,374,o),
(266,374,c),
(266,329,l)
);
},
{
closed = 1;
nodes = (
(396,0,o),
(466,70,o),
(466,191,c),
(386,166,l),
(386,97,o),
(344,55,o),
(266,55,c),
(266,0,l)
);
}
);
width = 486;
}
);
metricLeft = H;
metricRight = O;
unicode = 66;
},
{
glyphname = C;
lastChange = "2021-04-08 23:52:06 +0000";
layers = (
{
layerId = m01;
shapes = (
{
closed = 1;
nodes = (
(134,161,l),
(134,614,l),
(54,594,l),
(54,180,l)
);
},
{
closed = 1;
nodes = (
(168,349,l),
(98,459,l),
(79,449,l),
(89,349,l),
(79,249,l),
(98,239,l)
);
},
{
closed = 1;
nodes = (
(109,249,l),
(99,349,l),
(109,449,l),
(90,459,l),
(20,349,l),
(90,239,l)
);
},
{
closed = 1;
nodes = (
(425,600,l),
(425,727,o),
(367,795,o),
(255,795,cs),
(123,795,o),
(54,725,o),
(54,594,c),
(134,614,l),
(134,693,o),
(175,735,o),
(255,735,cs),
(336,735,o),
(383,686,o),
(383,594,c)
);
},
{
closed = 1;
nodes = (
(445,600,l),
(455,776,l),
(420,785,l),
(390,703,l),
(399,663,l),
(383,595,l)
);
},
{
closed = 1;
nodes = (
(383,89,o),
(336,40,o),
(255,40,cs),
(175,40,o),
(134,82,o),
(134,161,c),
(54,181,l),
(54,50,o),
(123,-20,o),
(255,-20,cs),
(367,-20,o),
(425,48,o),
(425,175,c),
(383,181,l)
);
},
{
closed = 1;
nodes = (
(399,112,l),
(390,72,l),
(420,-10,l),
(455,-1,l),
(445,175,l),
(383,180,l)
);
}
);
width = 475;
}
);
metricLeft = O;
metricRight = O;
unicode = 67;
},
{
glyphname = D;
lastChange = "2021-04-08 22:59:08 +0000";
layers = (
{
layerId = m01;
shapes = (
{
closed = 1;
nodes = (
(149,0,l),
(271,0,l),
(271,55,l),
(149,55,l)
);
},
{
closed = 1;
nodes = (
(40,-10,l),
(140,0,l),
(178,53,l),
(98,53,l),
(30,9,l)
);
},
{
closed = 1;
nodes = (
(271,720,l),
(271,775,l),
(149,775,l),
(149,720,l)
);
},
{
closed = 1;
nodes = (
(98,722,l),
(178,722,l),
(140,775,l),
(40,785,l),
(30,766,l)
);
},
{
closed = 1;
nodes = (
(98,0,l),
(178,0,l),
(178,775,l),
(98,775,l)
);
},
{
closed = 1;
nodes = (
(471,200,l),
(471,575,l),
(391,600,l),
(391,176,l)
);
},
{
closed = 1;
nodes = (
(349,720,o),
(391,678,o),
(391,599,c),
(471,574,l),
(471,705,o),
(401,775,o),
(271,775,c),
(271,720,l)
);
},
{
closed = 1;
nodes = (
(401,0,o),
(471,70,o),
(471,201,c),
(391,176,l),
(391,97,o),
(349,55,o),
(271,55,c),
(271,0,l)
);
},
{
closed = 1;
nodes = (
(505,349,l),
(435,459,l),
(416,449,l),
(426,349,l),
(416,249,l),
(435,239,l)
);
},
{
closed = 1;
nodes = (
(446,249,l),
(436,349,l),
(446,449,l),
(427,459,l),
(357,349,l),
(427,239,l)
);
}
);
width = 525;
}
);
metricLeft = H;
metricRight = O;
unicode = 68;
},
{
glyphname = E;
lastChange = "2021-04-08 23:36:27 +0000";
layers = (
{
layerId = m01;
shapes = (
{
closed = 1;
nodes = (
(98,0,l),
(178,0,l),
(178,775,l),
(98,775,l)
);
},
{
closed = 1;
nodes = (
(149,0,l),
(455,0,l),
(455,55,l),
(149,55,l)
);
},
{
closed = 1;
nodes = (
(40,-10,l),
(140,0,l),
(178,53,l),
(98,53,l),
(30,9,l)
);
},
{
closed = 1;
nodes = (
(435,720,l),
(435,775,l),
(149,775,l),
(149,720,l)
);
},
{
closed = 1;
nodes = (
(98,722,l),
(178,722,l),
(140,775,l),
(40,785,l),
(30,766,l)
);
},
{
closed = 1;
nodes = (
(363,720,l),
(407,594,l),
(445,604,l),
(435,775,l),
(363,775,l)
);
},
{
closed = 1;
nodes = (
(149,308,l),
(327,308,l),
(327,363,l),
(149,363,l)
);
},
{
closed = 1;
nodes = (
(337,210,l),
(327,335,l),
(337,465,l),
(308,475,l),
(264,363,l),
(264,308,l),
(308,200,l)
);
},
{
closed = 1;
nodes = (
(363,720,l),
(407,594,l),
(445,604,l),
(435,775,l),
(363,775,l)
);
},
{
closed = 1;
nodes = (
(455,0,l),
(465,169,l),
(427,179,l),
(383,54,l),
(383,0,l)
);
}
);
width = 495;
}
);
metricLeft = H;
metricRight = H;
unicode = 69;
},
{
glyphname = F;
lastChange = "2021-04-08 23:05:56 +0000";
layers = (
{
layerId = m01;
shapes = (
{
closed = 1;
nodes = (
(98,0,l),
(178,0,l),
(178,775,l),
(98,775,l)
);
},
{
closed = 1;
nodes = (
(98,722,l),
(178,722,l),
(140,775,l),
(40,785,l),
(30,766,l)
);
},
{
closed = 1;
nodes = (
(373,720,l),
(417,594,l),
(455,604,l),
(445,775,l),
(373,775,l)
);
},
{
closed = 1;
nodes = (
(149,308,l),
(337,308,l),
(337,363,l),
(149,363,l)
);
},
{
closed = 1;
nodes = (
(347,210,l),
(337,335,l),
(347,465,l),
(318,475,l),
(274,363,l),
(274,308,l),
(318,200,l)
);
},
{
closed = 1;
nodes = (
(445,720,l),
(445,775,l),
(149,775,l),
(149,720,l)
);
},
{
closed = 1;
nodes = (
(40,-10,l),
(140,0,l),
(240,-10,l),
(250,9,l),
(178,53,l),
(98,53,l),
(30,9,l)
);
}
);
width = 485;
}
);
metricLeft = H;
metricRight = H;
unicode = 70;
},
{
glyphname = G;
lastChange = "2021-04-08 23:51:16 +0000";
layers = (
{
layerId = m01;
shapes = (
{
closed = 1;
nodes = (
(134,161,l),
(134,614,l),
(54,594,l),
(54,180,l)
);
},
{
closed = 1;
nodes = (
(425,600,l),
(425,727,o),
(367,795,o),
(255,795,cs),
(123,795,o),
(54,725,o),
(54,594,c),
(134,614,l),
(134,693,o),
(175,735,o),
(255,735,cs),
(336,735,o),
(383,686,o),
(383,594,c)
);
},
{
closed = 1;
nodes = (
(168,349,l),
(98,459,l),
(79,449,l),
(89,349,l),
(79,249,l),
(98,239,l)
);
},
{
closed = 1;
nodes = (
(109,249,l),
(99,349,l),
(109,449,l),
(90,459,l),
(20,349,l),
(90,239,l)
);
},
{
closed = 1;
nodes = (
(373,89,o),
(336,40,o),
(255,40,cs),
(175,40,o),
(134,82,o),
(134,161,c),
(54,181,l),
(54,50,o),
(123,-20,o),
(255,-20,cs),
(353,-20,o),
(421,48,o),
(421,175,c),
(373,181,l)
);
},
{
closed = 1;
nodes = (
(236,308,l),
(453,308,l),
(453,363,l),
(236,363,l)
);
},
{
closed = 1;
nodes = (
(373,121,l),
(383,116,l),
(428,-9,l),
(463,0,l),
(453,171,l),
(453,320,l),
(373,320,l)
);
},
{
closed = 1;
nodes = (
(445,600,l),
(455,776,l),
(420,785,l),
(390,703,l),
(399,663,l),
(383,595,l)
);
}
);
width = 483;
}
);
metricLeft = O;
metricRight = O;
unicode = 71;
},
{
glyphname = H;
lastChange = "2021-04-08 23:28:53 +0000";
layers = (
{
layerId = m01;
shapes = (
{
closed = 1;
nodes = (
(98,0,l),
(178,0,l),
(178,775,l),
(98,775,l)
);
},
{
closed = 1;
nodes = (
(419,0,l),
(499,0,l),
(499,775,l),
(419,775,l)
);
},
{
closed = 1;
nodes = (
(149,308,l),
(445,308,l),
(445,363,l),
(149,363,l)
);
},
{
closed = 1;
nodes = (
(40,-10,l),
(140,0,l),
(240,-10,l),
(250,9,l),
(178,53,l),
(98,53,l),
(30,9,l)
);
},
{
closed = 1;
nodes = (
(361,-10,l),
(461,0,l),
(561,-10,l),
(571,9,l),
(499,53,l),
(419,53,l),
(351,9,l)
);
},
{
closed = 1;
nodes = (
(98,722,l),
(178,722,l),
(250,766,l),
(240,785,l),
(140,775,l),
(40,785,l),
(30,766,l)
);
},
{
closed = 1;
nodes = (
(419,722,l),
(499,722,l),
(571,766,l),
(561,785,l),
(461,775,l),
(361,785,l),
(351,766,l)
);
}
);
width = 601;
}
);
unicode = 72;
},
{
glyphname = I;
lastChange = "2021-04-08 23:05:56 +0000";
layers = (
{
layerId = m01;
shapes = (
{
closed = 1;
nodes = (
(98,0,l),
(178,0,l),
(178,775,l),
(98,775,l)
);
},
{
closed = 1;
nodes = (
(40,-10,l),
(140,0,l),
(240,-10,l),
(250,9,l),
(178,53,l),
(98,53,l),
(30,9,l)
);
},
{
closed = 1;
nodes = (
(98,722,l),
(178,722,l),
(250,766,l),
(240,785,l),
(140,775,l),
(40,785,l),
(30,766,l)
);
}
);
width = 280;
}
);
metricLeft = H;
metricRight = H;
unicode = 73;
},
{
glyphname = J;
lastChange = "2021-04-08 23:24:13 +0000";
layers = (
{
layerId = m01;
shapes = (
{
closed = 1;
nodes = (
(230,180,l),
(230,744,l),
(150,744,l),
(150,151,l)
);
},
{
closed = 1;
nodes = (
(150,72,o),
(108,30,o),
(30,30,c),
(30,-20,l),
(160,-20,o),
(230,50,o),
(230,181,c),
(150,151,l)
);
},
{
closed = 1;
nodes = (
(150,722,l),
(230,722,l),
(302,766,l),
(292,785,l),
(192,775,l),
(92,785,l),
(82,766,l)
);
}
);
width = 332;
}
);
metricLeft = H;
metricRight = H;
unicode = 74;
},
{
glyphname = K;
lastChange = "2021-04-08 23:49:59 +0000";
layers = (
{
layerId = m01;
shapes = (
{
closed = 1;
nodes = (
(98,0,l),
(178,0,l),
(178,775,l),
(98,775,l)
);
},
{
closed = 1;
nodes = (
(40,-10,l),
(140,0,l),
(240,-10,l),
(250,9,l),
(178,53,l),
(98,53,l),
(30,9,l)
);
},
{
closed = 1;
nodes = (
(98,722,l),
(178,722,l),
(250,766,l),
(240,785,l),
(140,775,l),
(40,785,l),
(30,766,l)
);
},
{
closed = 1;
nodes = (
(513,53,l),
(284,448,l),
(220,400,l),
(418,53,l)
);
},
{
closed = 1;
nodes = (
(360,-10,l),
(470,0,l),
(575,-10,l),
(585,9,l),
(513,53,l),
(423,53,l),
(350,9,l)
);
},
{
closed = 1;
nodes = (
(391,722,l),
(131,267,l),
(127,221,l),
(171,221,l),
(468,722,l)
);
},
{
closed = 1;
nodes = (
(389,722,l),
(469,722,l),
(541,766,l),
(531,785,l),
(431,775,l),
(331,785,l),
(321,766,l)
);
}
);
width = 615;
}
);
metricLeft = H;
metricRight = V;
unicode = 75;
},
{
glyphname = L;
lastChange = "2021-04-08 22:35:42 +0000";
layers = (
{
layerId = m01;
shapes = (
{
closed = 1;
nodes = (
(98,0,l),
(178,0,l),
(178,775,l),
(98,775,l)
);
},
{
closed = 1;
nodes = (
(149,0,l),
(445,0,l),
(445,55,l),
(149,55,l)
);
},
{
closed = 1;
nodes = (
(40,-10,l),
(140,0,l),
(178,53,l),
(98,53,l),
(30,9,l)
);
},
{
closed = 1;
nodes = (
(98,722,l),
(178,722,l),
(250,766,l),
(240,785,l),
(140,775,l),
(40,785,l),
(30,766,l)
);
},
{
closed = 1;
nodes = (
(445,0,l),
(455,171,l),
(417,181,l),
(373,55,l),
(373,0,l)
);
}
);
width = 475;
}
);
metricLeft = H;
unicode = 76;
},
{
glyphname = M;
lastChange = "2021-04-09 01:43:49 +0000";
layers = (
{
layerId = m01;
shapes = (
{
closed = 1;
nodes = (
(98,0,l),
(163,0,l),
(163,714,l),
(98,775,l)
);
},
{
closed = 1;
nodes = (
(40,-10,l),
(133,0,l),
(225,-10,l),
(235,9,l),
(163,53,l),
(98,53,l),
(30,9,l)
);
},
{
closed = 1;
nodes = (
(98,722,l),
(166,700,l),
(153,775,l),
(40,785,l),
(30,766,l)
);
},
{
closed = 1;
nodes = (
(593,0,l),
(673,0,l),
(673,775,l),
(593,703,l)
);
},
{
closed = 1;
nodes = (
(535,-10,l),
(635,0,l),
(735,-10,l),
(745,9,l),
(673,53,l),
(593,53,l),
(525,9,l)
);
},
{
closed = 1;
nodes = (
(731,785,l),
(605,775,l),
(593,722,l),
(673,722,l),
(741,766,l)
);
},
{
closed = 1;
nodes = (
(605,775,l),
(374,76,l),
(426,76,l),
(153,775,l),
(138,604,l),
(374,0,l),
(413,0,l),
(675,775,l)
);
}
);
width = 775;
}
);
metricLeft = H;
metricRight = H;
unicode = 77;
},
{
glyphname = N;
lastChange = "2021-04-08 23:33:16 +0000";
layers = (
{
layerId = m01;
shapes = (
{
closed = 1;
nodes = (
(98,0,l),
(163,0,l),
(163,680,l),
(98,775,l)
);
},
{
closed = 1;
nodes = (
(434,145,l),
(461,0,l),
(499,0,l),
(499,775,l),
(434,775,l)
);
},
{
closed = 1;
nodes = (
(40,-10,l),
(133,0,l),
(225,-10,l),
(235,9,l),
(163,53,l),
(98,53,l),
(30,9,l)
);
},
{
closed = 1;
nodes = (
(98,722,l),
(166,700,l),
(140,775,l),
(40,785,l),
(30,766,l)
);
},
{
closed = 1;
nodes = (
(137,611,l),
(461,0,l),
(463,166,l),
(140,775,l)
);
},
{
closed = 1;
nodes = (
(557,785,l),
(464,775,l),
(372,785,l),
(362,766,l),
(434,722,l),
(499,722,l),
(567,766,l)
);
}
);
width = 601;
}
);
metricLeft = H;
metricRight = "=H+4";
unicode = 78;
},
{
glyphname = O;
lastChange = "2021-04-08 22:56:51 +0000";
layers = (
{
layerId = m01;
shapes = (
{
closed = 1;
nodes = (
(134,161,l),
(134,614,l),
(54,594,l),
(54,180,l)
);
},
{
closed = 1;
nodes = (
(455,180,l),
(455,594,l),
(375,614,l),
(375,161,l)
);
},
{
closed = 1;
nodes = (
(455,594,l),
(455,725,o),
(385,795,o),
(255,795,cs),
(124,795,o),
(54,725,o),
(54,594,c),
(134,614,l),
(134,693,o),
(176,735,o),
(255,735,cs),
(333,735,o),
(375,693,o),
(375,614,c)
);
},
{
closed = 1;
nodes = (
(375,82,o),
(333,40,o),
(255,40,cs),
(176,40,o),
(134,82,o),
(134,161,c),
(54,181,l),
(54,50,o),
(124,-20,o),
(255,-20,cs),
(385,-20,o),
(455,50,o),
(455,181,c),
(375,161,l)
);
},
{
closed = 1;
nodes = (
(168,349,l),
(98,459,l),
(79,449,l),
(89,349,l),
(79,249,l),
(98,239,l)
);
},
{
closed = 1;
nodes = (
(109,249,l),
(99,349,l),
(109,449,l),
(90,459,l),
(20,349,l),
(90,239,l)
);
},
{
closed = 1;
nodes = (
(489,349,l),
(419,459,l),
(400,449,l),
(410,349,l),
(400,249,l),
(419,239,l)
);
},
{
closed = 1;
nodes = (
(430,249,l),
(420,349,l),
(430,449,l),
(411,459,l),
(341,349,l),
(411,239,l)
);
}
);
width = 509;
}
);
unicode = 79;
},
{
glyphname = P;
lastChange = "2021-04-08 23:07:55 +0000";
layers = (
{
layerId = m01;
shapes = (
{
closed = 1;
nodes = (
(149,269,l),
(256,269,l),
(256,324,l),
(149,324,l)
);
},
{
closed = 1;
nodes = (
(256,720,l),
(256,775,l),
(149,775,l),
(149,720,l)
);
},
{
closed = 1;
nodes = (
(98,722,l),
(178,722,l),
(140,775,l),
(40,785,l),
(30,766,l)
);
},
{
closed = 1;
nodes = (
(98,0,l),
(178,0,l),
(178,775,l),
(98,775,l)
);
},
{
closed = 1;
nodes = (
(456,468,l),
(456,575,l),
(376,600,l),
(376,444,l)
);
},
{
closed = 1;
nodes = (
(334,720,o),
(376,678,o),
(376,599,c),
(456,574,l),
(456,705,o),
(386,775,o),
(256,775,c),
(256,720,l)
);
},
{
closed = 1;
nodes = (
(386,269,o),
(456,339,o),
(456,470,c),
(376,445,l),
(376,366,o),
(334,324,o),
(256,324,c),
(256,269,l)
);
},
{
closed = 1;
nodes = (
(40,-10,l),
(140,0,l),
(240,-10,l),
(250,9,l),
(178,53,l),
(98,53,l),
(30,9,l)
);
}
);
width = 476;
}
);
metricLeft = H;
metricRight = O;
unicode = 80;
},
{
glyphname = Q;
lastChange = "2021-04-08 23:10:37 +0000";
layers = (
{
layerId = m01;
shapes = (
{
ref = O;
},
{
closed = 1;
nodes = (
(217,191,l),
(348,-97,l),
(429,-97,l),
(295,191,l)
);
}
);
width = 509;
}
);
unicode = 81;
},
{
glyphname = R;
lastChange = "2021-04-08 23:09:28 +0000";
layers = (
{
layerId = m01;
shapes = (
{
closed = 1;
nodes = (
(149,289,l),
(256,289,l),
(256,344,l),
(149,344,l)
);
},
{
closed = 1;
nodes = (
(256,720,l),
(256,775,l),
(149,775,l),
(149,720,l)
);
},
{
closed = 1;
nodes = (
(98,722,l),
(178,722,l),
(140,775,l),
(40,785,l),
(30,766,l)
);
},
{
closed = 1;
nodes = (
(98,0,l),
(178,0,l),
(178,775,l),
(98,775,l)
);
},
{
closed = 1;
nodes = (
(456,468,l),
(456,575,l),
(376,600,l),
(376,444,l)
);
},
{
closed = 1;
nodes = (
(334,720,o),
(376,678,o),
(376,599,c),
(456,574,l),
(456,705,o),
(386,775,o),
(256,775,c),
(256,720,l)
);
},
{
closed = 1;
nodes = (
(386,289,o),
(456,359,o),
(456,490,c),
(376,465,l),
(376,386,o),
(334,344,o),
(256,344,c),
(256,289,l)
);
},
{
closed = 1;
nodes = (
(40,-10,l),
(140,0,l),
(240,-10,l),
(250,9,l),
(178,53,l),
(98,53,l),
(30,9,l)
);
},
{
closed = 1;
nodes = (
(490,0,l),
(346,310,l),
(260,305,l),
(399,0,l)
);
},
{
closed = 1;
nodes = (
(325,-10,l),
(425,0,l),
(525,-10,l),
(535,9,l),
(463,53,l),
(383,53,l),
(315,9,l)
);
}
);
width = 555;
}
);
metricLeft = H;
metricRight = O;
unicode = 82;
},
{
glyphname = S;
lastChange = "2021-04-08 23:23:12 +0000";
layers = (
{
layerId = m01;
shapes = (
{
closed = 1;
nodes = (
(50,175,l),
(50,48,o),
(108,-20,o),
(215,-20,cs),
(342,-20,o),
(411,50,o),
(411,161,c),
(321,151,l),
(321,82,o),
(290,40,o),
(215,40,cs),
(139,40,o),
(92,89,o),
(92,181,c)
);
},
{
closed = 1;
nodes = (
(40,466,o),
(126,391,o),
(196,331,cs),
(263,273,o),
(321,214,o),
(321,151,c),
(411,161,l),
(411,260,o),
(321,342,o),
(247,409,cs),
(185,466,o),
(125,526,o),
(125,624,c),
(40,614,l)
);
},
{
closed = 1;
nodes = (
(381,600,l),
(381,727,o),
(313,795,o),
(226,795,cs),
(109,795,o),
(40,725,o),
(40,614,c),
(125,624,l),
(125,693,o),
(161,735,o),
(226,735,cs),
(292,735,o),
(339,687,o),
(339,595,c)
);
},
{
closed = 1;
nodes = (
(30,175,l),
(20,0,l),
(55,-9,l),
(85,73,l),
(76,113,l),
(92,181,l)
);
},
{
closed = 1;
nodes = (
(401,600,l),
(411,776,l),
(376,785,l),
(346,703,l),
(355,663,l),
(339,595,l)
);
}
);
width = 431;
}
);
metricLeft = O;
metricRight = O;
unicode = 83;
},
{
glyphname = T;
lastChange = "2021-04-08 22:46:06 +0000";
layers = (
{
layerId = m01;
shapes = (
{
closed = 1;
nodes = (
(234,0,l),
(314,0,l),
(314,775,l),
(234,775,l)
);
},
{
closed = 1;
nodes = (
(174,-10,l),
(274,0,l),
(374,-10,l),
(384,9,l),
(312,53,l),
(232,53,l),
(164,9,l)
);
},
{
closed = 1;
nodes = (
(274,720,l),
(508,730,l),
(508,785,l),
(274,775,l),
(40,785,l),
(40,730,l)
);
},
{
closed = 1;
nodes = (
(436,730,l),
(480,604,l),
(518,614,l),
(508,785,l),
(436,765,l)
);
},
{
closed = 1;
nodes = (
(40,785,l),
(30,614,l),
(68,604,l),
(112,730,l),
(112,765,l)
);
}
);
width = 548;
}
);
unicode = 84;
},
{
glyphname = U;
lastChange = "2021-04-08 23:06:40 +0000";
layers = (
{
layerId = m01;
shapes = (
{
closed = 1;
nodes = (
(178,161,l),
(178,744,l),
(98,744,l),
(98,180,l)
);
},
{
closed = 1;
nodes = (
(499,180,l),
(499,744,l),
(419,744,l),
(419,161,l)
);
},
{
closed = 1;
nodes = (
(419,82,o),
(377,40,o),
(299,40,cs),
(220,40,o),
(178,82,o),
(178,161,c),
(98,181,l),
(98,50,o),
(168,-20,o),
(299,-20,cs),
(429,-20,o),
(499,50,o),
(499,181,c),
(419,161,l)
);
},
{
closed = 1;
nodes = (
(98,722,l),
(178,722,l),
(250,766,l),
(240,785,l),
(140,775,l),
(40,785,l),
(30,766,l)
);
},
{
closed = 1;
nodes = (
(419,722,l),
(499,722,l),
(571,766,l),
(561,785,l),
(461,775,l),
(361,785,l),
(351,766,l)
);
}
);
width = 601;
}
);
metricLeft = H;
metricRight = H;
unicode = 85;
},
{
glyphname = V;
lastChange = "2021-04-08 23:48:15 +0000";
layers = (
{
layerId = m01;
shapes = (
{
closed = 1;
nodes = (
(486,722,l),
(313,76,l),
(365,76,l),
(191,722,l),
(98,722,l),
(309,0,l),
(353,0,l),
(563,722,l)
);
},
{
closed = 1;
nodes = (
(98,722,l),
(191,722,l),
(263,766,l),
(253,785,l),
(143,775,l),
(40,785,l),
(30,766,l)
);
},
{
closed = 1;
nodes = (
(484,722,l),
(564,722,l),
(636,766,l),
(626,785,l),
(526,775,l),
(426,785,l),
(416,766,l)
);
}
);
width = 666;
}
);
unicode = 86;
},
{
glyphname = W;
lastChange = "2021-04-09 01:43:14 +0000";
layers = (
{
layerId = m01;
shapes = (
{
closed = 1;
nodes = (
(426,722,l),
(303,76,l),
(355,76,l),
(191,722,l),
(98,722,l),
(299,0,l),
(343,0,l),
(503,722,l)
);
},
{
closed = 1;
nodes = (
(98,722,l),
(191,722,l),
(243,766,l),
(233,785,l),
(143,775,l),
(40,785,l),
(30,766,l)
);
},
{
closed = 1;
nodes = (
(424,722,l),
(504,722,l),
(576,766,l),
(566,785,l),
(466,775,l),
(366,785,l),
(356,766,l)
);
},
{
closed = 1;
nodes = (
(739,722,l),
(616,76,l),
(668,76,l),
(504,722,l),
(440,612,l),
(612,0,l),
(656,0,l),
(816,722,l)
);
},
{
closed = 1;
nodes = (
(737,722,l),
(817,722,l),
(889,766,l),
(879,785,l),
(779,775,l),
(679,785,l),
(669,766,l)
);
}
);
width = 919;
}
);
metricLeft = V;
metricRight = V;
unicode = 87;
},
{
glyphname = X;
lastChange = "2021-04-08 23:41:36 +0000";
layers = (
{
layerId = m01;
shapes = (
{
closed = 1;
nodes = (
(488,722,l),
(320,386,l),
(362,321,l),
(565,722,l)
);
},
{
closed = 1;
nodes = (
(104,722,l),
(205,722,l),
(272,766,l),
(262,785,l),
(152,775,l),
(46,785,l),
(36,766,l)
);
},
{
closed = 1;
nodes = (
(489,722,l),
(565,722,l),
(637,766,l),
(627,785,l),
(529,775,l),
(431,785,l),
(421,766,l)
);
},
{
closed = 1;
nodes = (
(426,-10,l),
(529,0,l),
(637,-10,l),
(647,9,l),
(570,53,l),
(484,53,l),
(416,9,l)
);
},
{
closed = 1;
nodes = (
(484,53,l),
(570,53,l),
(205,722,l),
(104,722,l)
);
},
{
closed = 1;
nodes = (
(180,53,l),
(358,369,l),
(316,434,l),
(103,53,l)
);
},
{
closed = 1;
nodes = (
(178,53,l),
(102,53,l),
(30,9,l),
(40,-10,l),
(138,0,l),
(236,-10,l),
(246,9,l)
);
}
);
width = 677;
}
);
metricLeft = V;
metricRight = V;
unicode = 88;
},
{
glyphname = Y;
lastChange = "2021-04-08 23:31:37 +0000";
layers = (
{
layerId = m01;
shapes = (
{
closed = 1;
nodes = (
(486,722,l),
(322,272,l),
(368,272,l),
(189,722,l),
(98,722,l),
(314,196,l),
(358,196,l),
(563,722,l)
);
},
{
closed = 1;
nodes = (
(98,722,l),
(189,722,l),
(261,766,l),
(251,785,l),
(141,775,l),
(40,785,l),
(30,766,l)
);
},
{
closed = 1;
nodes = (
(488,722,l),
(564,722,l),
(636,766,l),
(626,785,l),
(528,775,l),
(430,785,l),
(420,766,l)
);
},
{
closed = 1;
nodes = (
(296,0,l),
(376,0,l),
(376,252,l),
(296,252,l)
);
},
{
closed = 1;
nodes = (
(238,-10,l),
(338,0,l),
(438,-10,l),
(448,9,l),
(376,53,l),
(296,53,l),
(228,9,l)
);
}
);
width = 666;
}
);
metricLeft = V;
metricRight = V;
unicode = 89;
},
{
glyphname = Z;
lastChange = "2021-04-08 23:36:30 +0000";
layers = (
{
layerId = m01;
shapes = (
{
closed = 1;
nodes = (
(30,38,l),
(30,0,l),
(433,0,l),
(433,55,l),
(105,55,l)
);
},
{
closed = 1;
nodes = (
(432,775,l),
(58,775,l),
(58,720,l),
(396,720,l),
(432,737,l)
);
},
{
closed = 1;
nodes = (
(58,775,l),
(48,604,l),
(86,594,l),
(130,720,l),
(130,775,l)
);
},
{
closed = 1;
nodes = (
(118,38,l),
(432,737,l),
(344,737,l),
(30,38,l)
);
},
{
closed = 1;
nodes = (
(433,0,l),
(443,169,l),
(405,179,l),
(361,54,l),
(361,0,l)
);
}
);
width = 473;
}
);
metricLeft = H;
metricRight = H;
unicode = 90;
},
